<?xml version="1.0" encoding="UTF-8" standalone="no"?>
<!-- Created with Inkscape (http://www.inkscape.org/) -->

<svg
   width="500"
   height="500"
   viewBox="0 0 132.29167 132.29167"
   version="1.1"
   id="svg5"
   inkscape:version="1.1 (ce6663b3b7, 2021-05-25)"
   sodipodi:docname="galaxy.svg"
   xmlns:inkscape="http://www.inkscape.org/namespaces/inkscape"
   xmlns:sodipodi="http://sodipodi.sourceforge.net/DTD/sodipodi-0.dtd"
   xmlns:xlink="http://www.w3.org/1999/xlink"
   xmlns="http://www.w3.org/2000/svg"
   xmlns:svg="http://www.w3.org/2000/svg">
  <sodipodi:namedview
     id="namedview7"
     pagecolor="#ffffff"
     bordercolor="#666666"
     borderopacity="1.0"
     inkscape:pageshadow="2"
     inkscape:pageopacity="0.0"
     inkscape:pagecheckerboard="0"
     inkscape:document-units="px"
     showgrid="false"
     inkscape:zoom="0.64"
     inkscape:cx="260.9375"
     inkscape:cy="188.28125"
     inkscape:window-width="1366"
     inkscape:window-height="768"
     inkscape:window-x="0"
     inkscape:window-y="-39"
     inkscape:window-maximized="1"
     inkscape:current-layer="layer1"
     units="px" />
  <defs
     id="defs2">
    <linearGradient
       inkscape:collect="always"
       id="linearGradient2971">
      <stop
         style="stop-color:#ff00ff;stop-opacity:0.01815884"
         offset="0"
         id="stop2967" />
      <stop
         style="stop-color:#ff00ff;stop-opacity:0"
         offset="0.04354813"
         id="stop6313" />
      <stop
         style="stop-color:#ff00ff;stop-opacity:0.08282427"
         offset="0.08529747"
         id="stop3523" />
      <stop
         style="stop-color:#ff00ff;stop-opacity:1"
         offset="0.2817046"
         id="stop3589" />
      <stop
         style="stop-color:#ff00ff;stop-opacity:1"
         offset="0.52465385"
         id="stop4167" />
      <stop
         style="stop-color:#00ffff;stop-opacity:0.95237732"
         offset="1"
         id="stop2969" />
    </linearGradient>
    <linearGradient
       id="linearGradient2778"
       inkscape:swatch="solid">
      <stop
         style="stop-color:#000000;stop-opacity:1;"
         offset="0"
         id="stop2776" />
    </linearGradient>
    <radialGradient
       inkscape:collect="always"
       xlink:href="#linearGradient2971"
       id="radialGradient3005"
       gradientUnits="userSpaceOnUse"
       gradientTransform="matrix(0.00270216,1.5977343e-5,-1.6509595e-5,0.00279216,61.588133,67.553217)"
       cx="1265.0752"
       cy="1553.9546"
       fx="1265.0752"
       fy="1553.9546"
       r="23940.424"
       spreadMethod="pad" />
  </defs>
  <g
     inkscape:label="Layer 1"
     inkscape:groupmode="layer"
     id="layer1">
    <path
       style="color:#000000;mix-blend-mode:normal;fill:url(#radialGradient3005);fill-opacity:1;fill-rule:evenodd;stroke-width:0.00270221;-inkscape-stroke:none"
       d="M 65.376158,5.0666452 C 57.689671,5.0648975 50.008962,6.428175 42.715825,9.1653033 33.784518,12.517213 25.725513,17.841152 19.138631,24.740292 12.664528,31.521341 7.7806545,39.703243 4.9011078,48.629237 0.64926546,61.809013 0.95353648,76.085213 5.8596925,89.05359 c 3.187086,8.424427 8.2343675,16.02002 14.7654975,22.22125 6.41131,6.08747 14.141507,10.67286 22.567087,13.36385 12.422339,3.96749 25.863446,3.64461 38.062651,-1.01331 7.911169,-3.02064 15.03742,-7.78824 20.847932,-13.9472 5.69569,-6.03727 9.97846,-13.310359 12.478,-21.22948 3.67879,-11.65524 3.33637,-24.250574 -1.071,-35.670437 C 110.65738,45.387274 106.17268,38.736898 100.39038,33.322744 94.731862,28.024514 87.921749,24.04898 80.515712,21.744105 69.65065,18.362729 57.888033,18.726683 47.270942,22.876392 40.407839,25.558853 34.24054,29.757198 29.229034,35.157965 c -4.894464,5.274602 -8.5576,11.615288 -10.664148,18.500989 -3.082802,10.076753 -2.696687,20.966947 1.197999,30.781967 2.510472,6.326653 6.41865,12.002784 11.432568,16.604599 4.885062,4.48357 10.749173,7.82845 17.106515,9.73244 9.275467,2.77799 19.278713,2.36798 28.277655,-1.26925 5.78052,-2.3364 10.956343,-5.95034 15.140393,-10.571538 4.064578,-4.489247 7.084429,-9.868867 8.780934,-15.688902 2.46588,-8.459486 2.02974,-17.559426 -1.347703,-25.726263 -2.16015,-5.223377 -5.475393,-9.888353 -9.697472,-13.645253 -4.086407,-3.63617 -8.972622,-6.323087 -14.245284,-7.806081 -7.626682,-2.145102 -15.804686,-1.679834 -23.120822,1.435807 -9.207098,3.920884 -16.309458,11.842731 -18.916786,21.581413 -1.81369,6.774356 -1.315077,14.008805 1.537521,20.452185 3.549275,8.017044 10.580767,14.164104 19.171388,16.303055 5.898785,1.468697 12.164269,0.930534 17.707821,-1.659702 6.781032,-3.168456 11.948414,-9.300312 13.587702,-16.707747 1.103468,-4.986217 0.513713,-10.268771 -1.815647,-14.870096 -2.78615,-5.503618 -7.986214,-9.638943 -14.1892,-10.732466 -2.756703,-0.48596 -5.575325,-0.341566 -8.275787,0.461982 -5.88816,1.752066 -10.714087,6.771332 -11.295103,13.209556 -0.19034,2.109135 0.111327,4.241426 0.939814,6.227629 1.391807,3.336862 4.356308,6.107127 8.227891,6.670666 0.813632,0.118493 1.637803,0.12059 2.451942,0.007 1.450399,-0.202906 2.90335,-0.799057 4.083977,-1.861751 1.020296,-0.918353 1.806629,-2.182922 2.012646,-3.721334 0.30857,-2.304176 -1.164235,-4.69598 -3.121915,-2.618583 -1.957699,2.077432 -2.084842,2.344494 -2.307007,2.544481 -0.349047,0.314163 -0.7971,0.519061 -1.375162,0.599909 -0.328372,0.04596 -0.680983,0.04492 -1.00897,-0.0035 -1.801945,-0.262292 -3.476013,-1.726533 -4.25041,-3.583163 -0.503908,-1.208136 -0.687607,-2.466098 -0.566964,-3.802898 0.371032,-4.111452 3.608608,-7.566894 7.665654,-8.774103 1.93746,-0.576507 3.92438,-0.681491 5.932848,-0.327428 4.497269,0.792817 8.429338,3.880548 10.519755,8.009912 1.772078,3.500463 2.24091,7.596132 1.385753,11.460287 -1.275841,5.765228 -5.377295,10.668011 -10.763504,13.184739 -4.450833,2.079669 -9.520659,2.523912 -14.31236,1.330858 C 48.123548,89.146479 42.308022,84.086632 39.379767,77.472364 37.011469,72.122891 36.587552,66.078297 38.105656,60.408038 c 2.185736,-8.164006 8.19071,-14.88469 15.984774,-18.203848 6.221162,-2.649325 13.212964,-3.053354 19.737454,-1.218273 4.514921,1.269882 8.725116,3.583512 12.23332,6.7052 3.64559,3.243921 6.507765,7.271291 8.373151,11.781895 2.924217,7.070919 3.309074,14.987156 1.164111,22.345708 -1.477068,5.067293 -4.117882,9.774091 -7.663889,13.690571 -3.666842,4.04995 -8.20228,7.216819 -13.268541,9.264499 -7.902203,3.19396 -16.723528,3.56037 -24.89897,1.11184 -5.608427,-1.67971 -10.802163,-4.641 -15.118687,-8.602742 -4.446709,-4.081233 -7.912462,-9.11476 -10.139023,-14.72593 -3.459218,-8.717601 -3.807845,-18.427219 -1.061366,-27.40463 1.878353,-6.139773 5.154221,-11.811989 9.524259,-16.521461 4.488199,-4.836808 10.011006,-8.596434 16.15763,-10.998847 9.519058,-3.720548 20.102167,-4.051995 29.868393,-1.012588 6.662556,2.073499 12.805755,5.658724 17.901884,10.430379 5.220984,4.888574 9.270044,10.892902 11.845684,17.566556 3.98508,10.325658 4.29882,21.733532 0.96532,32.294795 -2.2655,7.17765 -6.15542,13.785098 -11.322698,19.262278 -5.283026,5.59984 -11.761936,9.93437 -18.955035,12.68086 -11.104512,4.23993 -23.358909,4.53763 -34.687532,0.91946 -7.685806,-2.45472 -14.751447,-6.6451 -20.604618,-12.2026 C 18.167394,101.89902 13.551038,94.951903 10.635839,87.246192 6.1439876,75.372929 5.8618946,62.282826 9.7609852,50.196521 12.402358,42.008869 16.889316,34.490596 22.832107,28.266078 28.888481,21.922578 36.298031,17.027677 44.510098,13.945679 57.142857,9.2046086 71.058756,8.9377554 83.893907,13.11429 c 8.683695,2.825683 16.649493,7.605709 23.241173,13.929269 6.70906,6.436144 11.87946,14.302817 15.12644,23.015454 4.98776,13.383731 5.23979,28.11632 0.78894,41.692138 -0.77847,2.374484 -1.69679,4.7036 0.6616,5.687001 2.35837,0.983402 3.34992,-1.531351 4.19078,-4.096141 4.80923,-14.668939 4.53986,-30.586665 -0.85631,-45.066243 C 123.53133,38.843402 117.93352,30.3264 110.67019,23.358541 103.52346,16.502516 94.894816,11.323932 85.474001,8.2584149 78.945055,6.1338833 72.158343,5.0681832 65.376158,5.0661209 Z"
       id="path1149"
       sodipodi:nodetypes="sssssssssssssssssssssssssssssssssssssssscsssssssssssssssssssssssssssssssssssssssssscsssss" />
  </g>
</svg>
